
<svg width="629px" height="532px" viewBox="0 0 629 532" version="1.1" xmlns="http://www.w3.org/2000/svg" xmlns:xlink="http://www.w3.org/1999/xlink">
    <g id="Page-1" stroke="none" stroke-width="1" fill="none" fill-rule="evenodd" opacity="0.02">
        <g id="Artboard" transform="translate(-811.000000, -492.000000)" fill="#FFFFFF" fill-rule="nonzero">
            <g id="Asset-3-Copy" transform="translate(811.000000, 492.000000)">
                <rect id="Rectangle" x="566" y="530" width="63" height="230"></rect>
                <rect id="Rectangle" x="566" y="0" width="63" height="224"></rect>
                <path d="M65.6514085,497.629431 C65.6514085,517.907358 82.0212596,534.345866 102.214494,534.345866 L618.122202,534.345866 C623.931656,534.387285 628.682732,539.006828 628.91131,544.836276 L628.91131,589.033577 C628.91131,595.017227 624.080862,599.867935 618.122202,599.867935 L65.6514085,599.867935 C63.0855659,600.044022 60.5107459,600.044022 57.9449033,599.867935 L56.1467188,599.867935 C26.6675685,591.872008 4.67009605,567.151743 0.0604865999,536.839488 C0.0182668951,536.180936 0.0182668951,535.520339 0.0604865999,534.861788 L0.0604865999,230.725887 C-0.0201622,230.097916 -0.0201622,229.462144 0.0604865999,228.834173 C5.20210737,194.563203 32.567724,167.998826 66.8501982,164 L618.20783,164 C621.114349,164 623.89826,165.175989 625.929159,167.263964 C627.960058,169.351938 629.06614,172.174438 629,175.092319 L629,218.945672 C629.019978,221.826153 627.890672,224.595378 625.862306,226.632252 C623.83394,228.669125 621.076281,229.803167 618.20783,229.78003 L102.214494,229.78003 C82.0212596,229.78003 65.6514085,246.218538 65.6514085,266.496465 L65.6514085,497.629431 Z" id="Path"></path>
                <path d="M167,413.184086 L167,344.073617 L173.641304,342.958932 C247.206522,332.669532 251.804348,327.267597 251.889493,252.497958 C251.889493,208.853754 250.697464,165.123804 252.911232,121.65109 C257.083333,40.8793005 319.324275,-9.28152394 401.82971,1.43660094 L401.82971,61.4581003 C391.612319,62.8300203 383.012681,63.6874703 374.498188,65.3166252 C334.990942,72.6049502 318.643116,90.43991 317.791667,131.25453 C316.684783,179.271729 316.599638,227.460418 317.791667,275.477618 C318.728261,315.349042 313.023551,351.704922 272.23913,380.000772 C323.326087,411.126206 318.047101,459.572131 317.536232,506.73188 C317.536232,542.57329 317.536232,578.328955 317.536232,614.170364 C317.536232,671.019299 328.605072,684.052538 384.03442,695.542368 L402,699.057913 L402,758.307708 C324.518116,770.140517 257.253623,718.693518 252.996377,642.380469 C250.101449,590.933469 251.804348,539.48647 251.634058,488.039471 C251.634058,438.221626 243.71558,428.961166 194.672101,419.443471 C186.327899,417.900061 177.813406,415.670691 167,413.184086 Z" id="Path"></path>
                <rect id="Rectangle" x="374" y="0" width="255" height="60"></rect>
                <polygon id="Path" points="335 382.72859 358.879476 349 629 349 629 413 358.879476 413"></polygon>
            </g>
        </g>
    </g>
</svg>