
<svg width="629px" height="378px" viewBox="0 0 629 378" version="1.1" xmlns="http://www.w3.org/2000/svg" xmlns:xlink="http://www.w3.org/1999/xlink">
    <g id="Page-1" stroke="none" stroke-width="1" fill="none" fill-rule="evenodd" opacity="0.02">
        <g id="Artboard" transform="translate(-123.000000, 0.000000)" fill="#FFFFFF" fill-rule="nonzero">
            <g id="Asset-3-Copy-2" transform="translate(123.000000, -378.000000)">
                <rect id="Rectangle" x="563.931034" y="527.781609" width="65.0689655" height="227.741379"></rect>
                <path d="M65.6514085,494.613116 C65.6514085,514.788403 82.0212596,531.143704 102.214494,531.143704 L618.122202,531.143704 C623.931656,531.184914 628.682732,535.781073 628.91131,541.581015 L628.91131,585.554603 C628.91131,591.507966 624.080862,596.33412 618.122202,596.33412 L65.6514085,596.33412 C63.0855659,596.509316 60.5107459,596.509316 57.9449033,596.33412 L56.1467188,596.33412 C26.6675685,588.378667 4.67009605,563.783528 0.0604865999,533.624704 C0.0182668951,532.969486 0.0182668951,532.312233 0.0604865999,531.657014 L0.0604865999,229.060555 C-0.0201622,228.435763 -0.0201622,227.803209 0.0604865999,227.178417 C5.20210737,193.080916 32.567724,166.650999 66.8501982,162.672414 L618.20783,162.672414 C621.114349,162.672414 623.89826,163.84245 625.929159,165.919856 C627.960058,167.997262 629.06614,170.805475 629,173.708587 L629,217.339968 C629.019978,220.205869 627.890672,222.961077 625.862306,224.987641 C623.83394,227.014204 621.076281,228.142506 618.20783,228.119486 L102.214494,228.119486 C82.0212596,228.119486 65.6514085,244.474787 65.6514085,264.650073 L65.6514085,494.613116 Z" id="Path"></path>
                <path d="M166.287356,410.7501 L166.287356,342.046747 L172.927849,340.938628 C246.48407,330.709841 251.081334,325.339728 251.166469,251.010542 C251.166469,207.623437 249.974586,164.151092 252.188083,120.934467 C256.359674,40.6384885 318.593006,-9.22684829 401.088352,1.42813821 L401.088352,61.0960626 C390.87221,62.4599009 382.273624,63.3122998 373.760172,64.9318578 C334.257757,72.1772486 317.911929,89.9071461 317.060584,130.481335 C315.953836,178.215674 315.868701,226.120494 317.060584,273.854833 C317.997064,313.491383 312.293051,349.633097 271.513618,377.762261 C322.594328,408.704342 317.315988,456.864881 316.805181,503.746822 C316.805181,539.377097 316.805181,574.922132 316.805181,610.552407 C316.805181,667.066455 327.872668,680.022919 383.295238,691.445064 L401.258621,694.9399 L401.258621,753.840665 C323.786211,765.60377 256.529943,714.459835 252.273218,638.596331 C249.378644,587.452396 251.081334,536.308461 250.911065,485.164525 C250.911065,435.640148 242.993555,426.43424 193.956074,416.972612 C185.612891,415.438294 177.09944,413.222057 166.287356,410.7501 Z" id="Path"></path>
                <rect id="Rectangle" x="375.954023" y="690.454023" width="253.045977" height="65.0689655"></rect>
                <polygon id="Path" points="336.189655 381.326428 359.972504 347.034483 629 347.034483 629 412.103448 359.972504 412.103448"></polygon>
            </g>
        </g>
    </g>
</svg>