
<svg width="32.41px" height="38px" viewBox="0 0 20 24" version="1.1" xmlns="http://www.w3.org/2000/svg" xmlns:xlink="http://www.w3.org/1999/xlink">
    <g id="Page-1" stroke="none" stroke-width="1" fill="none" fill-rule="evenodd">
        <g id="Artboard" transform="translate(-73.000000, -20.000000)" fill="#FFFFFF" fill-rule="nonzero">
            <g id="Asset-3" transform="translate(73.000000, 20.000000)">
                <rect id="Rectangle" x="17.8106667" y="16.4933333" width="2.04266667" height="7.14133333"></rect>
                <rect id="Rectangle" x="17.8106667" y="0.008" width="2.04266667" height="7.024"></rect>
                <path d="M2.30933333,15.336 C2.30933333,15.9648682 2.81913176,16.4746667 3.448,16.4746667 L19.5146667,16.4746667 C19.6955877,16.4759512 19.8435482,16.6192145 19.8506667,16.8 L19.8506667,18.1706667 C19.8506667,18.3562343 19.7002343,18.5066667 19.5146667,18.5066667 L2.30933333,18.5066667 C2.22942653,18.5121276 2.14924014,18.5121276 2.06933333,18.5066667 L2.01333333,18.5066667 C1.09527827,18.2586934 0.410221526,17.4920574 0.266666667,16.552 C0.265351839,16.5315767 0.265351839,16.51109 0.266666667,16.4906667 L0.266666667,7.05866667 C0.26415506,7.03919176 0.26415506,7.01947491 0.266666667,7 C0.4267897,5.9371732 1.27902399,5.11334671 2.34666667,4.98933332 L19.5173333,4.98933332 C19.6078496,4.98933332 19.6945477,5.02580363 19.757795,5.09055684 C19.8210423,5.15531005 19.8554885,5.24284268 19.8534287,5.33333333 L19.8534287,6.69333333 C19.8540509,6.78266412 19.8188815,6.86854457 19.755713,6.93171301 C19.6925446,6.99488145 19.6066641,7.03005088 19.5173333,7.02933333 L3.448,7.02933333 C2.81913176,7.02933333 2.30933333,7.53913176 2.30933333,8.168 L2.30933333,15.336 Z" id="Path"></path>
                <path d="M5.44533333,12.8506667 L5.44533333,10.7013333 L5.65333333,10.6666667 C7.95733333,10.3466667 8.10133333,10.1786667 8.104,7.85333333 C8.104,6.496 8.06666667,5.136 8.136,3.784 C8.26666667,1.272 10.216,-0.288 12.8,0.0453333333 L12.8,1.912 C12.48,1.95466667 12.2106667,1.98133333 11.944,2.032 C10.7066667,2.25866667 10.1946667,2.81333333 10.168,4.08266667 C10.1333333,5.576 10.1306667,7.07466667 10.168,8.568 C10.1973333,9.808 10.0186667,10.9386667 8.74133333,11.8186667 C10.3413333,12.7866667 10.176,14.2933333 10.16,15.76 C10.16,16.8746667 10.16,17.9866667 10.16,19.1013333 C10.16,20.8693333 10.5066667,21.2746667 12.2426667,21.632 L12.8053333,21.7413333 L12.8053333,23.584 C10.3786667,23.952 8.272,22.352 8.13866667,19.9786667 C8.048,18.3786667 8.10133333,16.7786667 8.096,15.1786667 C8.096,13.6293333 7.848,13.3413333 6.312,13.0453333 C6.05066667,12.9973333 5.784,12.928 5.44533333,12.8506667 Z" id="Path"></path>
                <rect id="Rectangle" x="11.9306667" y="21.592" width="7.92266667" height="2.04266667"></rect>
                <rect id="Rectangle" x="11.9306667" y="0.008" width="7.92266667" height="1.95466667"></rect>
                <polygon id="Path" points="10.6933333 11.8133333 11.4373333 10.7466667 19.8533333 10.7466667 19.8533333 12.7706667 11.4373333 12.7706667"></polygon>
            </g>
        </g>
    </g>
</svg>