<?xml version="1.0" encoding="UTF-8"?>
<svg width="33px" height="32px" viewBox="0 0 33 32" version="1.1" xmlns="http://www.w3.org/2000/svg" xmlns:xlink="http://www.w3.org/1999/xlink">
    <!-- Generator: Sketch 59.1 (86144) - https://sketch.com -->
    <title>OBJECTS</title>
    <desc>Created with Sketch.</desc>
    <g id="Customer" stroke="none" stroke-width="1" fill="none" fill-rule="evenodd">
        <g id="Password-reset" transform="translate(-289.000000, -83.000000)" fill="#FFFFFF" fill-rule="nonzero">
            <g id="OBJECTS" transform="translate(289.000000, 82.500000)">
                <path d="M1.42019936,32.2196616 L1.42019936,32.2196616 C0.143358128,31.573012 -0.366655064,30.0160154 0.280919211,28.741604 L13.6324528,2.48364917 C14.2609943,1.23565915 15.5560921,0.463031312 16.9552092,0.501363358 C18.3154103,0.551373791 19.5389569,1.34066449 20.143119,2.55783393 L28.6038733,19.3494683 C29.1765473,20.4659215 29.1254566,21.7993761 28.4690268,22.8689313 C27.7805096,23.9639186 26.5712468,24.6231625 25.2759305,24.6096854 L16.8048034,24.6096854 C15.3726174,24.6096854 14.2116013,23.4510697 14.2116013,22.0218449 L14.2116013,22.0218449 C14.2116013,20.59262 15.3726174,19.4340044 16.8048034,19.4340044 L22.8365917,19.4340044 L16.8670403,7.55754176 L4.90546308,31.082737 C4.25747365,32.3569383 2.6972512,32.865897 1.42019936,32.2196616 Z" id="Path"></path>
                <path d="M1.42019936,32.2196616 C0.143358128,31.573012 -0.366655064,30.0160154 0.280919211,28.741604 L13.6324528,2.48364917 C14.2609943,1.23565915 15.5560921,0.463031312 16.9552092,0.501363358 C18.3154103,0.551373791 19.5389569,1.34066449 20.143119,2.55783393 L28.6038733,19.3494683 C29.1765473,20.4659215 29.1254566,21.7993761 28.4690268,22.8689313 C27.7805096,23.9639186 26.5712468,24.6231625 25.2759305,24.6096854 L16.8048034,24.6096854 C15.3726174,24.6096854 14.2116013,23.4510697 14.2116013,22.0218449 C14.2116013,20.59262 15.3726174,19.4340044 16.8048034,19.4340044 L22.8365917,19.4340044 L16.8670403,7.55754176 L4.90546308,31.082737 C4.25747365,32.3569383 2.6972512,32.865897 1.42019936,32.2196616 Z" id="Path"></path>
                <path d="M30.3732298,31.5 L12.6267702,31.5 C11.1760451,31.5 10,30.3807119 10,29 C10,27.6192881 11.1760451,26.5 12.6267702,26.5 L30.3732298,26.5 C31.8239549,26.5 33,27.6192881 33,29 C33,30.3807119 31.8239549,31.5 30.3732298,31.5 Z" id="Path"></path>
                <path d="M28.4630078,22.7670492 C29.1268788,21.7024475 29.1785486,20.3751686 28.5993829,19.2638862 L20.0427189,2.55002053 C19.4321858,1.33782177 18.1946756,0.551467957 16.8186714,0.501357044 C15.4036942,0.463202529 14.0939153,1.23225202 13.4582488,2.47446211 L11,7.22949077 C14.8814455,3.47045944 16.729503,7.52485549 16.729503,7.52485549 L22.7614791,19.3480308 L16.6613155,19.3480308 C15.2128945,19.3480308 14.0387172,20.5012804 14.0387172,21.9238859 C14.0387172,23.3464915 15.2128945,24.4997411 16.6613155,24.4997411 L25.2284699,24.4997411 C26.5403285,24.5149573 27.765707,23.8585409 28.4630078,22.7670492 Z" id="Path"></path>
                <path d="M23.2870788,19.5 L17.4916052,19.5 C16.1155296,19.5 15,20.6192881 15,22 C15,23.3807119 16.1155296,24.5 17.4916052,24.5 L21.0296845,24.5 C25.9331635,23.8516667 23.2870788,19.5 23.2870788,19.5 Z" id="Path" style="mix-blend-mode: multiply;"></path>
                <path d="M33,29 C33,27.6192881 31.8460672,26.5 30.422619,26.5 L13.0098328,26.5 C13.0098328,26.5 12.2658288,31.5 23.7214283,31.5 L30.422619,31.5 C31.8460672,31.5 33,30.3807119 33,29 L33,29 Z" id="Path" style="mix-blend-mode: multiply;"></path>
            </g>
        </g>
    </g>
</svg>